<svg version="1.1" id="Layer_1" xmlns="http://www.w3.org/2000/svg" xmlns:xlink="http://www.w3.org/1999/xlink" x="0px" y="0px"
	 width="100%" viewBox="0 0 192 54" enable-background="new 0 0 192 54" xml:space="preserve">
<path fill="#FDFCFC" opacity="1.000000" stroke="none" 
	d="
M137.000000,55.000000 
	C91.333344,55.000000 46.166687,55.000000 1.000024,55.000000 
	C1.000016,37.000015 1.000016,19.000031 1.000008,1.000034 
	C64.999969,1.000023 128.999939,1.000023 192.999939,1.000011 
	C192.999954,18.999966 192.999954,36.999931 192.999969,54.999947 
	C174.500000,55.000000 156.000000,55.000000 137.000000,55.000000 
M31.403290,36.465096 
	C31.403290,33.725906 31.403290,30.986715 31.403290,28.250580 
	C35.491280,28.250580 38.772312,28.250580 42.590157,28.250580 
	C42.590157,31.836903 42.590157,35.229656 42.590157,38.613445 
	C44.852047,38.613445 46.548546,38.613445 48.176788,38.613445 
	C48.176788,29.641068 48.176788,21.049162 48.176788,12.333185 
	C46.214890,12.333185 44.498615,12.333185 42.463612,12.333185 
	C42.463612,15.945760 42.463612,19.233553 42.463612,22.759836 
	C38.738823,22.759836 35.331753,22.759836 31.423496,22.759836 
	C31.423496,19.223154 31.423496,15.821092 31.423496,12.354191 
	C29.201633,12.354191 27.484612,12.354191 25.796513,12.354191 
	C25.796513,21.302052 25.796513,29.902437 25.796513,39.598434 
	C27.985241,38.745453 29.680140,38.084927 31.403290,36.465096 
M151.983398,34.347679 
	C151.983398,35.797684 151.983398,37.247688 151.983398,38.717041 
	C154.186081,38.717041 155.912888,38.717041 158.040802,38.717041 
	C158.040802,36.048435 158.040802,33.681522 158.040802,30.514227 
	C161.977325,34.273529 162.723892,41.755745 170.420380,38.294483 
	C168.228256,35.182289 166.070251,32.118523 163.826385,28.932850 
	C165.945602,26.055952 167.965271,23.314184 169.951584,20.617706 
	C162.703995,17.288141 161.679459,24.318209 157.793640,28.048601 
	C157.793640,21.522388 157.793640,15.943135 157.793640,10.257372 
	C155.710236,10.257372 153.993912,10.257372 151.983398,10.257372 
	C151.983398,18.146791 151.983398,25.760798 151.983398,34.347679 
M147.751297,35.258648 
	C147.751328,33.430370 147.756836,31.602072 147.750443,29.773815 
	C147.716415,20.046570 144.351135,17.909100 135.656372,20.741501 
	C133.670319,20.435436 131.684250,20.129372 129.550842,19.800598 
	C129.550842,26.662119 129.550842,32.732334 129.550842,39.071476 
	C131.601959,38.979324 133.326202,38.901855 135.141907,38.820282 
	C135.141907,35.481339 134.726624,32.576241 135.282913,29.870926 
	C135.676208,27.958195 137.385254,26.316013 138.506927,24.553053 
	C139.623840,26.246866 141.382141,27.825329 141.712204,29.660652 
	C142.250763,32.655243 141.857666,35.817383 141.857666,39.260258 
	C144.447449,38.372795 147.948654,40.874065 147.751297,35.258648 
M91.955528,34.409889 
	C88.769775,35.217678 85.805634,35.509815 84.270554,30.714457 
	C88.451324,30.714457 92.162781,30.714457 95.789520,30.714457 
	C96.461357,24.327372 94.759254,21.135923 90.186813,20.205618 
	C85.728226,19.298479 81.898422,20.551931 79.467010,24.640482 
	C77.198524,28.455053 77.922989,33.925678 80.875282,36.648182 
	C83.583565,39.145672 90.800415,39.996017 93.550522,37.928421 
	C94.283859,37.377079 94.541161,36.067104 94.741898,35.051071 
	C94.777084,34.872955 93.444069,34.424538 91.955528,34.409889 
M106.002869,25.462749 
	C106.002869,21.039612 106.002869,16.616474 106.002869,11.931575 
	C103.672188,12.043608 101.940018,12.126870 100.288040,12.206279 
	C100.288040,21.327581 100.288040,30.033188 100.288040,38.747467 
	C105.656830,38.747467 110.731522,38.747467 116.072861,38.747467 
	C115.934700,37.070747 115.820152,35.680511 115.668785,33.843475 
	C112.287788,33.843475 109.225281,33.843475 106.002869,33.843475 
	C106.002869,31.059038 106.002869,28.750292 106.002869,25.462749 
M70.522575,28.409161 
	C72.350899,26.893543 74.179222,25.377926 76.774384,23.226624 
	C76.764603,23.040476 76.690826,21.637274 76.578911,19.508451 
	C74.175026,20.492376 72.300049,21.259817 70.425072,22.027258 
	C70.512894,21.636251 70.600716,21.245243 70.688530,20.854235 
	C68.861038,20.498642 67.033539,20.143047 64.825165,19.713341 
	C64.825165,26.496090 64.825165,32.531155 64.825165,38.775555 
	C66.644081,38.775555 68.215744,38.775555 70.304489,38.775555 
	C70.304489,35.453781 70.304489,32.348629 70.522575,28.409161 
M58.246792,20.003222 
	C56.837170,20.085033 55.427547,20.166843 54.224621,20.236658 
	C54.224621,26.784842 54.224621,32.844925 54.224621,39.099689 
	C56.201069,38.971611 57.795376,38.868294 60.021732,38.724018 
	C59.716389,32.354824 59.425976,26.297085 58.246792,20.003222 
M124.208206,27.532990 
	C124.208206,25.115778 124.208206,22.698566 124.208206,20.227875 
	C122.092468,20.227875 120.513908,20.227875 118.755951,20.227875 
	C118.755951,26.478348 118.755951,32.507820 118.755951,38.689224 
	C120.626259,38.689224 122.330498,38.689224 124.208206,38.689224 
	C124.208206,35.096184 124.208206,31.806179 124.208206,27.532990 
M124.611572,14.115644 
	C123.821152,12.751630 123.305771,10.967969 122.127502,10.195737 
	C121.512848,9.792905 119.483864,10.929055 118.582527,11.849013 
	C118.144905,12.295673 118.694290,14.694752 119.031937,14.749088 
	C120.706535,15.018579 122.459511,14.800994 124.611572,14.115644 
M58.261383,10.200234 
	C56.716354,10.953111 55.111378,11.618203 53.707077,12.577167 
	C53.543465,12.688892 54.271732,15.020117 54.970196,15.276298 
	C56.149273,15.708756 58.584190,15.700747 58.804798,15.173042 
	C59.348362,13.872808 58.934193,12.172194 58.261383,10.200234 
z"/>
<path fill="#991C1C" opacity="1.000000" stroke="none" 
	d="
M31.389164,36.944748 
	C29.680140,38.084927 27.985241,38.745453 25.796513,39.598434 
	C25.796513,29.902437 25.796513,21.302052 25.796513,12.354191 
	C27.484612,12.354191 29.201633,12.354191 31.423496,12.354191 
	C31.423496,15.821092 31.423496,19.223154 31.423496,22.759836 
	C35.331753,22.759836 38.738823,22.759836 42.463612,22.759836 
	C42.463612,19.233553 42.463612,15.945760 42.463612,12.333185 
	C44.498615,12.333185 46.214890,12.333185 48.176788,12.333185 
	C48.176788,21.049162 48.176788,29.641068 48.176788,38.613445 
	C46.548546,38.613445 44.852047,38.613445 42.590157,38.613445 
	C42.590157,35.229656 42.590157,31.836903 42.590157,28.250580 
	C38.772312,28.250580 35.491280,28.250580 31.403290,28.250580 
	C31.403290,30.986715 31.403290,33.725906 31.389164,36.944748 
z"/>
<path fill="#0E0E0E" opacity="1.000000" stroke="none" 
	d="
M151.983398,33.861240 
	C151.983398,25.760798 151.983398,18.146791 151.983398,10.257372 
	C153.993912,10.257372 155.710236,10.257372 157.793640,10.257372 
	C157.793640,15.943135 157.793640,21.522388 157.793640,28.048601 
	C161.679459,24.318209 162.703995,17.288141 169.951584,20.617706 
	C167.965271,23.314184 165.945602,26.055952 163.826385,28.932850 
	C166.070251,32.118523 168.228256,35.182289 170.420380,38.294483 
	C162.723892,41.755745 161.977325,34.273529 158.040802,30.514227 
	C158.040802,33.681522 158.040802,36.048435 158.040802,38.717041 
	C155.912888,38.717041 154.186081,38.717041 151.983398,38.717041 
	C151.983398,37.247688 151.983398,35.797684 151.983398,33.861240 
z"/>
<path fill="#111111" opacity="1.000000" stroke="none" 
	d="
M147.750977,35.723820 
	C147.948654,40.874065 144.447449,38.372795 141.857666,39.260258 
	C141.857666,35.817383 142.250763,32.655243 141.712204,29.660652 
	C141.382141,27.825329 139.623840,26.246866 138.506927,24.553055 
	C137.385254,26.316013 135.676208,27.958195 135.282913,29.870926 
	C134.726624,32.576241 135.141907,35.481339 135.141907,38.820282 
	C133.326202,38.901855 131.601959,38.979324 129.550842,39.071476 
	C129.550842,32.732334 129.550842,26.662119 129.550842,19.800598 
	C131.684250,20.129372 133.670319,20.435436 135.656372,20.741501 
	C144.351135,17.909100 147.716415,20.046570 147.750443,29.773815 
	C147.756836,31.602072 147.751328,33.430370 147.750977,35.723820 
z"/>
<path fill="#9F2828" opacity="1.000000" stroke="none" 
	d="
M92.349236,34.255424 
	C93.444069,34.424538 94.777084,34.872955 94.741898,35.051071 
	C94.541161,36.067104 94.283859,37.377079 93.550522,37.928421 
	C90.800415,39.996017 83.583565,39.145672 80.875282,36.648182 
	C77.922989,33.925678 77.198524,28.455053 79.467010,24.640482 
	C81.898422,20.551931 85.728226,19.298479 90.186813,20.205618 
	C94.759254,21.135923 96.461357,24.327372 95.789520,30.714457 
	C92.162781,30.714457 88.451324,30.714457 84.270554,30.714457 
	C85.805634,35.509815 88.769775,35.217678 92.349236,34.255424 
z"/>
<path fill="#090909" opacity="1.000000" stroke="none" 
	d="
M106.002869,25.952147 
	C106.002869,28.750292 106.002869,31.059038 106.002869,33.843475 
	C109.225281,33.843475 112.287788,33.843475 115.668785,33.843475 
	C115.820152,35.680511 115.934700,37.070747 116.072861,38.747467 
	C110.731522,38.747467 105.656830,38.747467 100.288040,38.747467 
	C100.288040,30.033188 100.288040,21.327581 100.288040,12.206279 
	C101.940018,12.126870 103.672188,12.043608 106.002869,11.931575 
	C106.002869,16.616474 106.002869,21.039612 106.002869,25.952147 
z"/>
<path fill="#9B1F1F" opacity="1.000000" stroke="none" 
	d="
M70.413528,28.826317 
	C70.304489,32.348629 70.304489,35.453781 70.304489,38.775555 
	C68.215744,38.775555 66.644081,38.775555 64.825165,38.775555 
	C64.825165,32.531155 64.825165,26.496090 64.825165,19.713341 
	C67.033539,20.143047 68.861038,20.498642 70.688530,20.854235 
	C70.600716,21.245243 70.512894,21.636251 70.425072,22.027258 
	C72.300049,21.259817 74.175026,20.492376 76.578911,19.508451 
	C76.690826,21.637274 76.764603,23.040476 76.774384,23.226624 
	C74.179222,25.377926 72.350899,26.893543 70.413528,28.826317 
z"/>
<path fill="#A02A2A" opacity="1.000000" stroke="none" 
	d="
M58.691177,20.121284 
	C59.425976,26.297085 59.716389,32.354824 60.021732,38.724018 
	C57.795376,38.868294 56.201069,38.971611 54.224621,39.099689 
	C54.224621,32.844925 54.224621,26.784842 54.224621,20.236658 
	C55.427547,20.166843 56.837170,20.085033 58.691177,20.121284 
z"/>
<path fill="#000000" opacity="1.000000" stroke="none" 
	d="
M124.208206,28.024582 
	C124.208206,31.806179 124.208206,35.096184 124.208206,38.689224 
	C122.330498,38.689224 120.626259,38.689224 118.755951,38.689224 
	C118.755951,32.507820 118.755951,26.478348 118.755951,20.227875 
	C120.513908,20.227875 122.092468,20.227875 124.208206,20.227875 
	C124.208206,22.698566 124.208206,25.115778 124.208206,28.024582 
z"/>
<path fill="#0B0B0B" opacity="1.000000" stroke="none" 
	d="
M124.398224,14.435337 
	C122.459511,14.800994 120.706535,15.018579 119.031937,14.749088 
	C118.694290,14.694752 118.144905,12.295673 118.582527,11.849013 
	C119.483864,10.929055 121.512848,9.792905 122.127502,10.195737 
	C123.305771,10.967969 123.821152,12.751630 124.398224,14.435337 
z"/>
<path fill="#9F2828" opacity="1.000000" stroke="none" 
	d="
M58.583241,10.416397 
	C58.934193,12.172194 59.348362,13.872808 58.804798,15.173042 
	C58.584190,15.700747 56.149273,15.708756 54.970196,15.276298 
	C54.271732,15.020117 53.543465,12.688892 53.707077,12.577167 
	C55.111378,11.618203 56.716354,10.953111 58.583241,10.416397 
z"/>
</svg>